<svg width="128" height="191" viewBox="0 0 128 191" fill="none" xmlns="http://www.w3.org/2000/svg">
<path d="M123.398 100.189C117.874 82.886 109.955 66.6648 100.675 51.0869C100.041 50.0055 99.526 49.8703 98.3877 50.3191C88.1429 54.3907 77.871 58.3919 67.5992 62.404C67.2148 62.653 66.7613 62.7741 66.3036 62.75C66.347 62.2958 66.6939 62.0363 66.927 61.7281C68.4881 59.6085 70.098 57.5268 71.632 55.3856C72.2752 54.4812 73.1817 53.796 74.2284 53.4228C81.3618 50.6544 88.4735 47.8319 95.6069 45.0634C96.4417 44.7444 96.691 44.5227 96.1165 43.6576C86.6009 28.8936 76.2867 14.6573 65.2195 1.01188C64.1354 -0.334485 64.1354 -0.345299 63.0839 1.01188C49.0827 19.5543 36.021 38.7843 23.9478 58.6298C17.2859 69.6549 11.1662 80.9503 6.78641 93.1054C6.14679 94.8844 6.14679 94.5167 7.76752 95.0736C23.3352 100.401 38.9066 105.72 54.4815 111.03C55.0988 111.144 55.6662 111.444 56.1077 111.89C58.0753 114.463 60.0213 117.048 62.1353 119.849C61.5173 119.681 61.165 119.606 60.8289 119.492L26.4846 107.742C19.4813 105.342 12.4671 102.968 5.47465 100.535C4.60194 100.232 4.21167 100.324 4.02195 101.265C3.83223 102.206 3.4799 103.081 3.25224 103.968C-0.157266 116.35 -1.20885 128.841 1.66403 141.483C6.92734 164.733 27.7855 190.833 63.2898 190.979C68.2732 190.96 73.2405 190.416 78.1095 189.357C106.394 183.436 127.317 158.142 127.978 128.646C128.2 118.886 126.352 109.446 123.398 100.189ZM73.7135 147.771C72.7378 152.519 68.9976 155.584 64.1571 155.568C58.5306 155.568 54.1509 150.372 54.9423 144.808C55.3867 141.639 56.6931 138.86 58.2813 136.157C59.9671 133.285 61.951 130.609 63.8536 127.878C64.1951 127.392 64.3956 127.148 64.9106 127.776C68.2334 132.036 71.2797 136.465 73.0413 141.629C73.7189 143.575 74.1525 145.608 73.7189 147.744L73.7135 147.771ZM72.9763 93.2406C71.1821 96.8904 68.1412 98.572 64.8022 98.6801C58.5794 98.6801 54.2051 93.5704 54.9314 88.0498C55.3267 85.3668 56.2339 82.7843 57.6037 80.442C59.4683 77.2006 61.5283 74.075 63.7723 71.0824C64.0921 70.6498 64.3143 70.1307 64.9268 70.8931C68.2388 75.1593 71.2797 79.5823 73.0576 84.7461C74.017 87.5523 74.3531 90.4073 72.9763 93.2136V93.2406Z" fill="#009B9C"/>
</svg>
