<svg width="512" height="512" viewBox="0 0 512 512" fill="none" xmlns="http://www.w3.org/2000/svg">
<path d="M368 512C288.597 512 224 447.403 224 368C224 288.597 288.597 224 368 224C447.403 224 512 288.597 512 368C512 447.403 447.403 512 368 512Z" fill="#ccc"/>
<path d="M315.584 420.416C307.243 412.075 307.243 398.592 315.584 390.251L390.251 315.584C398.592 307.243 412.075 307.243 420.416 315.584C428.757 323.925 428.757 337.408 420.416 345.749L345.749 420.416C337.408 428.757 323.925 428.757 315.584 420.416Z" fill="white"/>
<path d="M390.251 420.416L315.584 345.749C307.243 337.408 307.243 323.925 315.584 315.584C323.925 307.243 337.408 307.243 345.749 315.584L420.416 390.251C428.757 398.592 428.757 412.075 420.416 420.416C412.075 428.757 398.592 428.757 390.251 420.416Z" fill="white"/>
<path d="M368 224C288.597 224 224 288.597 224 368C224 447.403 288.597 512 368 512V398.165L345.749 420.416C341.589 424.576 336.128 426.667 330.667 426.667C325.205 426.667 319.744 424.576 315.584 420.416C307.243 412.075 307.243 398.592 315.584 390.251L337.835 368L315.584 345.749C307.243 337.408 307.243 323.925 315.584 315.584C319.744 311.424 325.205 309.333 330.667 309.333C336.128 309.333 341.589 311.424 345.749 315.584L368 337.835V224Z" fill="#ccc"/>
<!-- <path d="M337.835 368L315.584 390.251C307.243 398.592 307.243 412.075 315.584 420.416C319.744 424.576 325.205 426.667 330.667 426.667C336.128 426.667 341.589 424.576 345.749 420.416L368 398.165L337.835 368Z" fill="#DEDEDE"/> -->
<!-- <path d="M330.667 309.333C325.205 309.333 319.744 311.424 315.584 315.584C307.243 323.925 307.243 337.408 315.584 345.749L337.835 368L368 398.165V337.835L345.749 315.584C341.589 311.424 336.128 309.333 330.667 309.333Z" fill="#DEDEDE"/> -->
<path d="M365.013 93.6532C338.987 49.4932 288.853 21.3333 234.667 21.3333C165.76 21.3333 105.813 66.5599 89.8133 128.64C39.4667 134.187 0 174.72 0 224C0 276.907 45.6533 320 101.547 320H187.733C208.853 240.213 281.813 181.333 368 181.333C405.12 181.333 439.893 192.213 469.12 211.2L469.333 206.293C469.333 148.907 424.107 100.907 365.013 93.6532Z" fill="#ccc"/>
<path d="M224 21.696C159.659 26.0907 104.981 69.7814 89.8133 128.64C39.4667 134.187 0 174.72 0 224C0 276.907 45.6533 320 101.547 320H187.733C194.688 293.76 207.232 269.803 224 249.429V21.696Z" fill="#ccc"/>
</svg>
